<?xml version="1.0" standalone="no"?>
<!DOCTYPE svg PUBLIC "-//W3C//DTD SVG 20010904//EN"
 "http://www.w3.org/TR/2001/REC-SVG-20010904/DTD/svg10.dtd">
<svg version="1.0" xmlns="http://www.w3.org/2000/svg"
 width="544.000000pt" height="544.000000pt" viewBox="0 0 544.000000 544.000000"
 preserveAspectRatio="xMidYMid meet">
<metadata>
Created by potrace 1.14, written by Peter Selinger 2001-2017
</metadata>
<g transform="translate(0.000000,544.000000) scale(0.100000,-0.100000)"
fill="#000000" stroke="none">
<path d="M2084 4732 l-32 -3 2 -100 c1 -55 -1 -104 -4 -110 -4 -6 -92 -10
-223 -10 -119 -1 -218 -4 -218 -8 -1 -3 -2 -53 -3 -111 l-1 -105 -108 -1 c-59
-1 -110 -3 -112 -6 -2 -2 -5 -52 -6 -111 l-2 -107 -76 -1 c-42 -1 -91 -1 -108
-1 -37 2 -34 10 -38 -118 -2 -47 -3 -91 -4 -98 0 -8 -11 -13 -23 -12 -13 1
-62 2 -110 1 l-88 -1 -2 -222 -3 -223 -101 -1 c-56 -1 -105 -4 -111 -7 -7 -4
-11 -1267 -4 -1323 1 -8 33 -11 102 -10 55 0 105 -1 110 -4 5 -3 10 -105 11
-225 l3 -220 80 -1 c44 -1 94 -2 110 -3 l31 -1 -2 -105 c-1 -62 3 -108 9 -112
5 -3 56 -6 113 -5 l102 1 1 -106 c1 -59 4 -109 7 -112 3 -3 50 -6 105 -7 55
-1 102 -4 106 -8 4 -3 7 -51 8 -106 1 -55 4 -102 8 -106 3 -4 103 -6 222 -6
160 1 215 -2 215 -11 1 -7 1 -52 2 -102 0 -49 3 -95 5 -102 4 -9 161 -12 664
-13 592 0 660 1 666 16 3 8 6 59 7 112 l1 97 218 1 c120 1 221 4 224 8 4 3 7
51 7 105 1 55 4 103 9 107 4 4 51 8 105 9 53 1 100 3 104 4 4 0 7 46 7 101 0
55 2 104 5 109 3 4 51 9 107 10 57 0 104 3 106 5 2 2 4 48 5 102 0 54 2 103 4
109 3 6 45 10 105 9 82 0 102 2 108 15 5 9 8 105 7 214 0 110 2 204 5 209 4 6
51 11 108 12 55 1 104 5 107 9 8 8 9 1315 1 1323 -2 3 -54 6 -113 7 l-108 2 0
223 1 222 -71 1 c-160 2 -151 -1 -153 44 -1 22 -2 72 -2 111 l-1 71 -105 0
c-58 0 -108 2 -110 5 -3 3 -6 51 -7 107 0 66 -5 104 -12 107 -6 2 -56 5 -111
6 l-100 3 -1 103 c0 56 -5 107 -10 112 -5 5 -105 11 -224 12 l-215 3 -1 103
c-1 56 -4 105 -7 109 -7 6 -1242 11 -1303 5z"/>
</g>
</svg>
